<?xml version="1.0" encoding="UTF-8" standalone="no"?>
<!DOCTYPE svg PUBLIC "-//W3C//DTD SVG 1.1//EN"
 "http://www.w3.org/Graphics/SVG/1.1/DTD/svg11.dtd">
<!-- Generated by graphviz version 7.1.0 (20230121.1956)
 -->
<!-- Pages: 1 -->
<svg width="1326pt" height="548pt"
 viewBox="0.00 0.00 1325.86 548.00" xmlns="http://www.w3.org/2000/svg" xmlns:xlink="http://www.w3.org/1999/xlink">
<g id="graph0" class="graph" transform="scale(1 1) rotate(0) translate(4 544)">
<polygon fill="white" stroke="none" points="-4,4 -4,-544 1321.86,-544 1321.86,4 -4,4"/>
<!-- [root] aws_instance.web (expand) -->
<g id="node1" class="node">
<title>[root] aws_instance.web (expand)</title>
<polygon fill="none" stroke="black" points="451.36,-324 333.36,-324 333.36,-288 451.36,-288 451.36,-324"/>
<text text-anchor="middle" x="392.36" y="-302.3" font-family="Times New Roman,serif" font-size="14.00">aws_instance.web</text>
</g>
<!-- [root] aws_key_pair.terraform_key (expand) -->
<g id="node3" class="node">
<title>[root] aws_key_pair.terraform_key (expand)</title>
<polygon fill="none" stroke="black" points="218.36,-180 42.36,-180 42.36,-144 218.36,-144 218.36,-180"/>
<text text-anchor="middle" x="130.36" y="-158.3" font-family="Times New Roman,serif" font-size="14.00">aws_key_pair.terraform_key</text>
</g>
<!-- [root] aws_instance.web (expand)&#45;&gt;[root] aws_key_pair.terraform_key (expand) -->
<g id="edge1" class="edge">
<title>[root] aws_instance.web (expand)&#45;&gt;[root] aws_key_pair.terraform_key (expand)</title>
<path fill="none" stroke="black" d="M332.95,-302.94C256.08,-298.87 128.53,-286.91 99.36,-252 84.38,-234.06 95.77,-208.43 108.77,-189.27"/>
<polygon fill="black" stroke="black" points="111.44,-191.56 114.49,-181.41 105.78,-187.44 111.44,-191.56"/>
</g>
<!-- [root] aws_security_group.terraform_sg (expand) -->
<g id="node6" class="node">
<title>[root] aws_security_group.terraform_sg (expand)</title>
<polygon fill="none" stroke="black" points="586.36,-252 380.36,-252 380.36,-216 586.36,-216 586.36,-252"/>
<text text-anchor="middle" x="483.36" y="-230.3" font-family="Times New Roman,serif" font-size="14.00">aws_security_group.terraform_sg</text>
</g>
<!-- [root] aws_instance.web (expand)&#45;&gt;[root] aws_security_group.terraform_sg (expand) -->
<g id="edge2" class="edge">
<title>[root] aws_instance.web (expand)&#45;&gt;[root] aws_security_group.terraform_sg (expand)</title>
<path fill="none" stroke="black" d="M414.86,-287.7C426.01,-279.11 439.68,-268.61 451.85,-259.24"/>
<polygon fill="black" stroke="black" points="453.82,-262.14 459.61,-253.27 449.55,-256.59 453.82,-262.14"/>
</g>
<!-- [root] aws_subnet.public_subnets (expand) -->
<g id="node8" class="node">
<title>[root] aws_subnet.public_subnets (expand)</title>
<polygon fill="none" stroke="black" points="952.86,-252 781.86,-252 781.86,-216 952.86,-216 952.86,-252"/>
<text text-anchor="middle" x="867.36" y="-230.3" font-family="Times New Roman,serif" font-size="14.00">aws_subnet.public_subnets</text>
</g>
<!-- [root] aws_instance.web (expand)&#45;&gt;[root] aws_subnet.public_subnets (expand) -->
<g id="edge3" class="edge">
<title>[root] aws_instance.web (expand)&#45;&gt;[root] aws_subnet.public_subnets (expand)</title>
<path fill="none" stroke="black" d="M451.54,-297.53C524.28,-288.17 651.76,-271.23 770.49,-252.43"/>
<polygon fill="black" stroke="black" points="770.76,-255.93 780.09,-250.9 769.66,-249.02 770.76,-255.93"/>
</g>
<!-- [root] data.aws_ami.linux (expand) -->
<g id="node10" class="node">
<title>[root] data.aws_ami.linux (expand)</title>
<polygon fill="none" stroke="black" points="362.36,-252 240.36,-252 240.36,-216 362.36,-216 362.36,-252"/>
<text text-anchor="middle" x="301.36" y="-230.3" font-family="Times New Roman,serif" font-size="14.00">data.aws_ami.linux</text>
</g>
<!-- [root] aws_instance.web (expand)&#45;&gt;[root] data.aws_ami.linux (expand) -->
<g id="edge4" class="edge">
<title>[root] aws_instance.web (expand)&#45;&gt;[root] data.aws_ami.linux (expand)</title>
<path fill="none" stroke="black" d="M369.87,-287.7C358.71,-279.11 345.05,-268.61 332.87,-259.24"/>
<polygon fill="black" stroke="black" points="335.17,-256.59 325.11,-253.27 330.91,-262.14 335.17,-256.59"/>
</g>
<!-- [root] var.instance_type -->
<g id="node15" class="node">
<title>[root] var.instance_type</title>
<polygon fill="none" stroke="black" points="216.36,-252 108.36,-252 108.36,-216 222.36,-216 222.36,-246 216.36,-252"/>
<polyline fill="none" stroke="black" points="216.36,-252 216.36,-246"/>
<polyline fill="none" stroke="black" points="222.36,-246 216.36,-246"/>
<text text-anchor="middle" x="165.36" y="-230.3" font-family="Times New Roman,serif" font-size="14.00">var.instance_type</text>
</g>
<!-- [root] aws_instance.web (expand)&#45;&gt;[root] var.instance_type -->
<g id="edge5" class="edge">
<title>[root] aws_instance.web (expand)&#45;&gt;[root] var.instance_type</title>
<path fill="none" stroke="black" d="M335.67,-287.52C304.4,-277.88 265.39,-265.84 232.59,-255.73"/>
<polygon fill="black" stroke="black" points="233.76,-252.43 223.18,-252.83 231.7,-259.12 233.76,-252.43"/>
</g>
<!-- [root] aws_internet_gateway.gw (expand) -->
<g id="node2" class="node">
<title>[root] aws_internet_gateway.gw (expand)</title>
<polygon fill="none" stroke="black" points="763.86,-252 604.86,-252 604.86,-216 763.86,-216 763.86,-252"/>
<text text-anchor="middle" x="684.36" y="-230.3" font-family="Times New Roman,serif" font-size="14.00">aws_internet_gateway.gw</text>
</g>
<!-- [root] aws_vpc.terraform&#45;vpc (expand) -->
<g id="node9" class="node">
<title>[root] aws_vpc.terraform&#45;vpc (expand)</title>
<polygon fill="none" stroke="black" points="758.36,-180 610.36,-180 610.36,-144 758.36,-144 758.36,-180"/>
<text text-anchor="middle" x="684.36" y="-158.3" font-family="Times New Roman,serif" font-size="14.00">aws_vpc.terraform&#45;vpc</text>
</g>
<!-- [root] aws_internet_gateway.gw (expand)&#45;&gt;[root] aws_vpc.terraform&#45;vpc (expand) -->
<g id="edge6" class="edge">
<title>[root] aws_internet_gateway.gw (expand)&#45;&gt;[root] aws_vpc.terraform&#45;vpc (expand)</title>
<path fill="none" stroke="black" d="M684.36,-215.7C684.36,-208.41 684.36,-199.73 684.36,-191.54"/>
<polygon fill="black" stroke="black" points="687.86,-191.62 684.36,-181.62 680.86,-191.62 687.86,-191.62"/>
</g>
<!-- [root] provider[&quot;registry.terraform.io/hashicorp/aws&quot;] -->
<g id="node11" class="node">
<title>[root] provider[&quot;registry.terraform.io/hashicorp/aws&quot;]</title>
<polygon fill="none" stroke="black" points="257.36,-108 0.14,-90 257.36,-72 514.59,-90 257.36,-108"/>
<text text-anchor="middle" x="257.36" y="-86.3" font-family="Times New Roman,serif" font-size="14.00">provider[&quot;registry.terraform.io/hashicorp/aws&quot;]</text>
</g>
<!-- [root] aws_key_pair.terraform_key (expand)&#45;&gt;[root] provider[&quot;registry.terraform.io/hashicorp/aws&quot;] -->
<g id="edge7" class="edge">
<title>[root] aws_key_pair.terraform_key (expand)&#45;&gt;[root] provider[&quot;registry.terraform.io/hashicorp/aws&quot;]</title>
<path fill="none" stroke="black" d="M162.08,-143.52C179.48,-133.93 201.17,-121.97 219.46,-111.89"/>
<polygon fill="black" stroke="black" points="221.11,-114.98 228.17,-107.09 217.73,-108.85 221.11,-114.98"/>
</g>
<!-- [root] aws_route_table.second_rt (expand) -->
<g id="node4" class="node">
<title>[root] aws_route_table.second_rt (expand)</title>
<polygon fill="none" stroke="black" points="788.36,-324 620.36,-324 620.36,-288 788.36,-288 788.36,-324"/>
<text text-anchor="middle" x="704.36" y="-302.3" font-family="Times New Roman,serif" font-size="14.00">aws_route_table.second_rt</text>
</g>
<!-- [root] aws_route_table.second_rt (expand)&#45;&gt;[root] aws_internet_gateway.gw (expand) -->
<g id="edge8" class="edge">
<title>[root] aws_route_table.second_rt (expand)&#45;&gt;[root] aws_internet_gateway.gw (expand)</title>
<path fill="none" stroke="black" d="M699.42,-287.7C697.29,-280.24 694.74,-271.32 692.35,-262.97"/>
<polygon fill="black" stroke="black" points="695.78,-262.21 689.67,-253.56 689.05,-264.14 695.78,-262.21"/>
</g>
<!-- [root] aws_route_table_association.public_subnet_asso (expand) -->
<g id="node5" class="node">
<title>[root] aws_route_table_association.public_subnet_asso (expand)</title>
<polygon fill="none" stroke="black" points="861.86,-396 568.86,-396 568.86,-360 861.86,-360 861.86,-396"/>
<text text-anchor="middle" x="715.36" y="-374.3" font-family="Times New Roman,serif" font-size="14.00">aws_route_table_association.public_subnet_asso</text>
</g>
<!-- [root] aws_route_table_association.public_subnet_asso (expand)&#45;&gt;[root] aws_route_table.second_rt (expand) -->
<g id="edge9" class="edge">
<title>[root] aws_route_table_association.public_subnet_asso (expand)&#45;&gt;[root] aws_route_table.second_rt (expand)</title>
<path fill="none" stroke="black" d="M712.64,-359.7C711.49,-352.32 710.1,-343.52 708.8,-335.25"/>
<polygon fill="black" stroke="black" points="712.3,-334.93 707.29,-325.6 705.38,-336.02 712.3,-334.93"/>
</g>
<!-- [root] aws_route_table_association.public_subnet_asso (expand)&#45;&gt;[root] aws_subnet.public_subnets (expand) -->
<g id="edge10" class="edge">
<title>[root] aws_route_table_association.public_subnet_asso (expand)&#45;&gt;[root] aws_subnet.public_subnets (expand)</title>
<path fill="none" stroke="black" d="M747.47,-359.62C763.37,-350.2 782.33,-337.7 797.36,-324 817.69,-305.48 836.7,-280.63 849.76,-261.9"/>
<polygon fill="black" stroke="black" points="852.6,-263.94 855.35,-253.71 846.82,-260 852.6,-263.94"/>
</g>
<!-- [root] aws_security_group.terraform_sg (expand)&#45;&gt;[root] aws_vpc.terraform&#45;vpc (expand) -->
<g id="edge11" class="edge">
<title>[root] aws_security_group.terraform_sg (expand)&#45;&gt;[root] aws_vpc.terraform&#45;vpc (expand)</title>
<path fill="none" stroke="black" d="M533.57,-215.52C560.89,-206 594.9,-194.16 623.7,-184.13"/>
<polygon fill="black" stroke="black" points="624.73,-187.47 633.02,-180.88 622.43,-180.86 624.73,-187.47"/>
</g>
<!-- [root] var.ports -->
<g id="node16" class="node">
<title>[root] var.ports</title>
<polygon fill="none" stroke="black" points="510.86,-180 449.86,-180 449.86,-144 516.86,-144 516.86,-174 510.86,-180"/>
<polyline fill="none" stroke="black" points="510.86,-180 510.86,-174"/>
<polyline fill="none" stroke="black" points="516.86,-174 510.86,-174"/>
<text text-anchor="middle" x="483.36" y="-158.3" font-family="Times New Roman,serif" font-size="14.00">var.ports</text>
</g>
<!-- [root] aws_security_group.terraform_sg (expand)&#45;&gt;[root] var.ports -->
<g id="edge12" class="edge">
<title>[root] aws_security_group.terraform_sg (expand)&#45;&gt;[root] var.ports</title>
<path fill="none" stroke="black" d="M483.36,-215.7C483.36,-208.41 483.36,-199.73 483.36,-191.54"/>
<polygon fill="black" stroke="black" points="486.86,-191.62 483.36,-181.62 479.86,-191.62 486.86,-191.62"/>
</g>
<!-- [root] aws_subnet.private_subnets (expand) -->
<g id="node7" class="node">
<title>[root] aws_subnet.private_subnets (expand)</title>
<polygon fill="none" stroke="black" points="1145.36,-252 971.36,-252 971.36,-216 1145.36,-216 1145.36,-252"/>
<text text-anchor="middle" x="1058.36" y="-230.3" font-family="Times New Roman,serif" font-size="14.00">aws_subnet.private_subnets</text>
</g>
<!-- [root] aws_subnet.private_subnets (expand)&#45;&gt;[root] aws_vpc.terraform&#45;vpc (expand) -->
<g id="edge13" class="edge">
<title>[root] aws_subnet.private_subnets (expand)&#45;&gt;[root] aws_vpc.terraform&#45;vpc (expand)</title>
<path fill="none" stroke="black" d="M971.03,-216.75C914.86,-206.29 840.3,-192.38 774.36,-180 772.75,-179.7 771.12,-179.39 769.48,-179.08"/>
<polygon fill="black" stroke="black" points="770.49,-175.71 760.01,-177.3 769.19,-182.59 770.49,-175.71"/>
</g>
<!-- [root] var.private_subnet_cidrs -->
<g id="node17" class="node">
<title>[root] var.private_subnet_cidrs</title>
<polygon fill="none" stroke="black" points="1311.86,-180 1162.86,-180 1162.86,-144 1317.86,-144 1317.86,-174 1311.86,-180"/>
<polyline fill="none" stroke="black" points="1311.86,-180 1311.86,-174"/>
<polyline fill="none" stroke="black" points="1317.86,-174 1311.86,-174"/>
<text text-anchor="middle" x="1240.36" y="-158.3" font-family="Times New Roman,serif" font-size="14.00">var.private_subnet_cidrs</text>
</g>
<!-- [root] aws_subnet.private_subnets (expand)&#45;&gt;[root] var.private_subnet_cidrs -->
<g id="edge14" class="edge">
<title>[root] aws_subnet.private_subnets (expand)&#45;&gt;[root] var.private_subnet_cidrs</title>
<path fill="none" stroke="black" d="M1103.82,-215.52C1128.34,-206.08 1158.81,-194.37 1184.74,-184.39"/>
<polygon fill="black" stroke="black" points="1185.68,-187.78 1193.76,-180.93 1183.17,-181.25 1185.68,-187.78"/>
</g>
<!-- [root] var.public_subnet_cidrs_zones -->
<g id="node20" class="node">
<title>[root] var.public_subnet_cidrs_zones</title>
<polygon fill="none" stroke="black" points="1138.86,-180 953.86,-180 953.86,-144 1144.86,-144 1144.86,-174 1138.86,-180"/>
<polyline fill="none" stroke="black" points="1138.86,-180 1138.86,-174"/>
<polyline fill="none" stroke="black" points="1144.86,-174 1138.86,-174"/>
<text text-anchor="middle" x="1049.36" y="-158.3" font-family="Times New Roman,serif" font-size="14.00">var.public_subnet_cidrs_zones</text>
</g>
<!-- [root] aws_subnet.private_subnets (expand)&#45;&gt;[root] var.public_subnet_cidrs_zones -->
<g id="edge15" class="edge">
<title>[root] aws_subnet.private_subnets (expand)&#45;&gt;[root] var.public_subnet_cidrs_zones</title>
<path fill="none" stroke="black" d="M1056.14,-215.7C1055.19,-208.32 1054.06,-199.52 1053,-191.25"/>
<polygon fill="black" stroke="black" points="1056.5,-191.08 1051.76,-181.61 1049.56,-191.97 1056.5,-191.08"/>
</g>
<!-- [root] aws_subnet.public_subnets (expand)&#45;&gt;[root] aws_vpc.terraform&#45;vpc (expand) -->
<g id="edge16" class="edge">
<title>[root] aws_subnet.public_subnets (expand)&#45;&gt;[root] aws_vpc.terraform&#45;vpc (expand)</title>
<path fill="none" stroke="black" d="M821.66,-215.52C797,-206.08 766.37,-194.37 740.29,-184.39"/>
<polygon fill="black" stroke="black" points="741.81,-181.23 731.22,-180.92 739.31,-187.76 741.81,-181.23"/>
</g>
<!-- [root] var.public_subnet_cidrs -->
<g id="node19" class="node">
<title>[root] var.public_subnet_cidrs</title>
<polygon fill="none" stroke="black" points="929.36,-180 783.36,-180 783.36,-144 935.36,-144 935.36,-174 929.36,-180"/>
<polyline fill="none" stroke="black" points="929.36,-180 929.36,-174"/>
<polyline fill="none" stroke="black" points="935.36,-174 929.36,-174"/>
<text text-anchor="middle" x="859.36" y="-158.3" font-family="Times New Roman,serif" font-size="14.00">var.public_subnet_cidrs</text>
</g>
<!-- [root] aws_subnet.public_subnets (expand)&#45;&gt;[root] var.public_subnet_cidrs -->
<g id="edge17" class="edge">
<title>[root] aws_subnet.public_subnets (expand)&#45;&gt;[root] var.public_subnet_cidrs</title>
<path fill="none" stroke="black" d="M865.39,-215.7C864.55,-208.41 863.56,-199.73 862.63,-191.54"/>
<polygon fill="black" stroke="black" points="866.1,-191.15 861.49,-181.61 859.15,-191.94 866.1,-191.15"/>
</g>
<!-- [root] aws_subnet.public_subnets (expand)&#45;&gt;[root] var.public_subnet_cidrs_zones -->
<g id="edge18" class="edge">
<title>[root] aws_subnet.public_subnets (expand)&#45;&gt;[root] var.public_subnet_cidrs_zones</title>
<path fill="none" stroke="black" d="M912.82,-215.52C937.34,-206.08 967.81,-194.37 993.74,-184.39"/>
<polygon fill="black" stroke="black" points="994.68,-187.78 1002.76,-180.93 992.17,-181.25 994.68,-187.78"/>
</g>
<!-- [root] aws_vpc.terraform&#45;vpc (expand)&#45;&gt;[root] provider[&quot;registry.terraform.io/hashicorp/aws&quot;] -->
<g id="edge19" class="edge">
<title>[root] aws_vpc.terraform&#45;vpc (expand)&#45;&gt;[root] provider[&quot;registry.terraform.io/hashicorp/aws&quot;]</title>
<path fill="none" stroke="black" d="M609.99,-148.81C535.63,-136.62 421.39,-117.89 343.23,-105.08"/>
<polygon fill="black" stroke="black" points="343.89,-101.64 333.46,-103.47 342.76,-108.55 343.89,-101.64"/>
</g>
<!-- [root] var.vpc_cidr -->
<g id="node22" class="node">
<title>[root] var.vpc_cidr</title>
<polygon fill="none" stroke="black" points="722.36,-108 640.36,-108 640.36,-72 728.36,-72 728.36,-102 722.36,-108"/>
<polyline fill="none" stroke="black" points="722.36,-108 722.36,-102"/>
<polyline fill="none" stroke="black" points="728.36,-102 722.36,-102"/>
<text text-anchor="middle" x="684.36" y="-86.3" font-family="Times New Roman,serif" font-size="14.00">var.vpc_cidr</text>
</g>
<!-- [root] aws_vpc.terraform&#45;vpc (expand)&#45;&gt;[root] var.vpc_cidr -->
<g id="edge20" class="edge">
<title>[root] aws_vpc.terraform&#45;vpc (expand)&#45;&gt;[root] var.vpc_cidr</title>
<path fill="none" stroke="black" d="M684.36,-143.7C684.36,-136.41 684.36,-127.73 684.36,-119.54"/>
<polygon fill="black" stroke="black" points="687.86,-119.62 684.36,-109.62 680.86,-119.62 687.86,-119.62"/>
</g>
<!-- [root] data.aws_ami.linux (expand)&#45;&gt;[root] provider[&quot;registry.terraform.io/hashicorp/aws&quot;] -->
<g id="edge21" class="edge">
<title>[root] data.aws_ami.linux (expand)&#45;&gt;[root] provider[&quot;registry.terraform.io/hashicorp/aws&quot;]</title>
<path fill="none" stroke="black" d="M292.44,-215.69C287.47,-205.51 281.47,-192.26 277.36,-180 270.7,-160.11 265.58,-136.98 262.19,-119.29"/>
<polygon fill="black" stroke="black" points="265.64,-118.7 260.39,-109.5 258.76,-119.97 265.64,-118.7"/>
</g>
<!-- [root] var.image_name -->
<g id="node14" class="node">
<title>[root] var.image_name</title>
<polygon fill="none" stroke="black" points="386.86,-180 285.86,-180 285.86,-144 392.86,-144 392.86,-174 386.86,-180"/>
<polyline fill="none" stroke="black" points="386.86,-180 386.86,-174"/>
<polyline fill="none" stroke="black" points="392.86,-174 386.86,-174"/>
<text text-anchor="middle" x="339.36" y="-158.3" font-family="Times New Roman,serif" font-size="14.00">var.image_name</text>
</g>
<!-- [root] data.aws_ami.linux (expand)&#45;&gt;[root] var.image_name -->
<g id="edge22" class="edge">
<title>[root] data.aws_ami.linux (expand)&#45;&gt;[root] var.image_name</title>
<path fill="none" stroke="black" d="M310.76,-215.7C314.94,-207.98 319.98,-198.71 324.65,-190.11"/>
<polygon fill="black" stroke="black" points="327.66,-191.89 329.36,-181.43 321.51,-188.55 327.66,-191.89"/>
</g>
<!-- [root] var.access_key -->
<g id="node12" class="node">
<title>[root] var.access_key</title>
<polygon fill="none" stroke="black" points="243.36,-36 147.36,-36 147.36,0 249.36,0 249.36,-30 243.36,-36"/>
<polyline fill="none" stroke="black" points="243.36,-36 243.36,-30"/>
<polyline fill="none" stroke="black" points="249.36,-30 243.36,-30"/>
<text text-anchor="middle" x="198.36" y="-14.3" font-family="Times New Roman,serif" font-size="14.00">var.access_key</text>
</g>
<!-- [root] provider[&quot;registry.terraform.io/hashicorp/aws&quot;]&#45;&gt;[root] var.access_key -->
<g id="edge26" class="edge">
<title>[root] provider[&quot;registry.terraform.io/hashicorp/aws&quot;]&#45;&gt;[root] var.access_key</title>
<path fill="none" stroke="black" d="M243.68,-72.76C236.66,-64.44 227.95,-54.1 220.05,-44.73"/>
<polygon fill="black" stroke="black" points="222.89,-42.67 213.77,-37.28 217.54,-47.18 222.89,-42.67"/>
</g>
<!-- [root] var.secret_key -->
<g id="node21" class="node">
<title>[root] var.secret_key</title>
<polygon fill="none" stroke="black" points="359.36,-36 267.36,-36 267.36,0 365.36,0 365.36,-30 359.36,-36"/>
<polyline fill="none" stroke="black" points="359.36,-36 359.36,-30"/>
<polyline fill="none" stroke="black" points="365.36,-30 359.36,-30"/>
<text text-anchor="middle" x="316.36" y="-14.3" font-family="Times New Roman,serif" font-size="14.00">var.secret_key</text>
</g>
<!-- [root] provider[&quot;registry.terraform.io/hashicorp/aws&quot;]&#45;&gt;[root] var.secret_key -->
<g id="edge27" class="edge">
<title>[root] provider[&quot;registry.terraform.io/hashicorp/aws&quot;]&#45;&gt;[root] var.secret_key</title>
<path fill="none" stroke="black" d="M271.05,-72.76C278.06,-64.44 286.78,-54.1 294.68,-44.73"/>
<polygon fill="black" stroke="black" points="297.19,-47.18 300.96,-37.28 291.83,-42.67 297.19,-47.18"/>
</g>
<!-- [root] var.image_id -->
<g id="node13" class="node">
<title>[root] var.image_id</title>
<polygon fill="none" stroke="black" points="1048.36,-468 966.36,-468 966.36,-432 1054.36,-432 1054.36,-462 1048.36,-468"/>
<polyline fill="none" stroke="black" points="1048.36,-468 1048.36,-462"/>
<polyline fill="none" stroke="black" points="1054.36,-462 1048.36,-462"/>
<text text-anchor="middle" x="1010.36" y="-446.3" font-family="Times New Roman,serif" font-size="14.00">var.image_id</text>
</g>
<!-- [root] var.private_subnet_cidrs_zones -->
<g id="node18" class="node">
<title>[root] var.private_subnet_cidrs_zones</title>
<polygon fill="none" stroke="black" points="1260.36,-468 1072.36,-468 1072.36,-432 1266.36,-432 1266.36,-462 1260.36,-468"/>
<polyline fill="none" stroke="black" points="1260.36,-468 1260.36,-462"/>
<polyline fill="none" stroke="black" points="1266.36,-462 1260.36,-462"/>
<text text-anchor="middle" x="1169.36" y="-446.3" font-family="Times New Roman,serif" font-size="14.00">var.private_subnet_cidrs_zones</text>
</g>
<!-- [root] provider[&quot;registry.terraform.io/hashicorp/aws&quot;] (close) -->
<g id="node23" class="node">
<title>[root] provider[&quot;registry.terraform.io/hashicorp/aws&quot;] (close)</title>
<ellipse fill="none" stroke="black" cx="715.36" cy="-450" rx="232.86" ry="18"/>
<text text-anchor="middle" x="715.36" y="-446.3" font-family="Times New Roman,serif" font-size="14.00">[root] provider[&quot;registry.terraform.io/hashicorp/aws&quot;] (close)</text>
</g>
<!-- [root] provider[&quot;registry.terraform.io/hashicorp/aws&quot;] (close)&#45;&gt;[root] aws_instance.web (expand) -->
<g id="edge23" class="edge">
<title>[root] provider[&quot;registry.terraform.io/hashicorp/aws&quot;] (close)&#45;&gt;[root] aws_instance.web (expand)</title>
<path fill="none" stroke="black" d="M658.96,-432.08C629.2,-422.56 592.34,-409.83 560.36,-396 514.93,-376.34 465.07,-349.17 431.56,-330.03"/>
<polygon fill="black" stroke="black" points="433.44,-327.08 423.02,-325.13 429.95,-333.14 433.44,-327.08"/>
</g>
<!-- [root] provider[&quot;registry.terraform.io/hashicorp/aws&quot;] (close)&#45;&gt;[root] aws_route_table_association.public_subnet_asso (expand) -->
<g id="edge24" class="edge">
<title>[root] provider[&quot;registry.terraform.io/hashicorp/aws&quot;] (close)&#45;&gt;[root] aws_route_table_association.public_subnet_asso (expand)</title>
<path fill="none" stroke="black" d="M715.36,-431.7C715.36,-424.41 715.36,-415.73 715.36,-407.54"/>
<polygon fill="black" stroke="black" points="718.86,-407.62 715.36,-397.62 711.86,-407.62 718.86,-407.62"/>
</g>
<!-- [root] provider[&quot;registry.terraform.io/hashicorp/aws&quot;] (close)&#45;&gt;[root] aws_subnet.private_subnets (expand) -->
<g id="edge25" class="edge">
<title>[root] provider[&quot;registry.terraform.io/hashicorp/aws&quot;] (close)&#45;&gt;[root] aws_subnet.private_subnets (expand)</title>
<path fill="none" stroke="black" d="M782.67,-432.3C811.1,-423.7 843.92,-411.68 871.36,-396 937.54,-358.18 1002.06,-295.16 1035.26,-260.24"/>
<polygon fill="black" stroke="black" points="1037.67,-262.79 1041.97,-253.1 1032.57,-257.99 1037.67,-262.79"/>
</g>
<!-- [root] root -->
<g id="node24" class="node">
<title>[root] root</title>
<ellipse fill="none" stroke="black" cx="1010.36" cy="-522" rx="49.29" ry="18"/>
<text text-anchor="middle" x="1010.36" y="-518.3" font-family="Times New Roman,serif" font-size="14.00">[root] root</text>
</g>
<!-- [root] root&#45;&gt;[root] var.image_id -->
<g id="edge29" class="edge">
<title>[root] root&#45;&gt;[root] var.image_id</title>
<path fill="none" stroke="black" d="M1010.36,-503.7C1010.36,-496.41 1010.36,-487.73 1010.36,-479.54"/>
<polygon fill="black" stroke="black" points="1013.86,-479.62 1010.36,-469.62 1006.86,-479.62 1013.86,-479.62"/>
</g>
<!-- [root] root&#45;&gt;[root] var.private_subnet_cidrs_zones -->
<g id="edge30" class="edge">
<title>[root] root&#45;&gt;[root] var.private_subnet_cidrs_zones</title>
<path fill="none" stroke="black" d="M1041.02,-507.5C1063.23,-497.73 1093.74,-484.29 1119.44,-472.98"/>
<polygon fill="black" stroke="black" points="1120.63,-476.28 1128.37,-469.05 1117.81,-469.87 1120.63,-476.28"/>
</g>
<!-- [root] root&#45;&gt;[root] provider[&quot;registry.terraform.io/hashicorp/aws&quot;] (close) -->
<g id="edge28" class="edge">
<title>[root] root&#45;&gt;[root] provider[&quot;registry.terraform.io/hashicorp/aws&quot;] (close)</title>
<path fill="none" stroke="black" d="M969.96,-511.41C925.44,-500.85 852.65,-483.58 796.29,-470.2"/>
<polygon fill="black" stroke="black" points="797.25,-466.83 786.72,-467.93 795.64,-473.65 797.25,-466.83"/>
</g>
</g>
</svg>
